# xmcd CD database file
#
# Track frame offsets:
#	150
#	11120
#	26708
#	42211
#	55461
#	71119
#	89719
#	105231
#	126004
#	140361
#	154786
#	168924
#	181599
#	196650
#	207730
#	221410
#
# Disc length: 3200 seconds
#
# Revision: 0
# Processed by: cddbd v1.5.2PL0 Copyright (c) Steve Scherf et al.
# Submitted via: CDex 1.51
#
DISCID=e00c7e10
DTITLE=Col Duncan - Country Music At Heart
DYEAR=1900
DGENRE=Country
TTITLE0=Indian Pacific
TTITLE1=Eulo Queen
TTITLE2=When The Golden Sliprails Are Down
TTITLE3=Leave Him In The Long  Yard
TTITLE4=Sweeney
TTITLE5=Paddy William
TTITLE6=Never Was At All
TTITLE7=Camooweal
TTITLE8=The Lights On The Hill
TTITLE9=By A Fire Of Gidgee Coal
TTITLE10=He's Just The One
TTITLE11=All I Have To Offer You Is Me
TTITLE12=Looking Forward Looking Back
TTITLE13=Nobody Heard
TTITLE14=Losing My Blues Tonight
TTITLE15=Always On My Mind
EXTD=
EXTT0=
EXTT1=
EXTT2=
EXTT3=
EXTT4=
EXTT5=
EXTT6=
EXTT7=
EXTT8=
EXTT9=
EXTT10=
EXTT11=
EXTT12=
EXTT13=
EXTT14=
EXTT15=
PLAYORDER=
